<?xml version="1.0" standalone="yes"?>
<svg xmlns="http://www.w3.org/2000/svg" width="6250" height="15055">
<path style="fill:#091023; stroke:none;" d="M0 0L0 619C194.485 619 389.484 654.788 567 736.309C699.867 797.325 820.641 883.422 925.17 985.285C1099.43 1155.1 1219.31 1376 1271.58 1613C1303.98 1759.91 1309.38 1910.73 1295.17 2060C1279.14 2228.47 1231.33 2395.34 1149.69 2544C1050.22 2725.11 908.103 2879.54 737 2995.25C679.575 3034.09 618.491 3066.04 556 3095.74C384.848 3177.11 187.9 3208 0 3208L0 15055L6250 15055L6250 3319C6218.78 3319.26 6187.23 3324.59 6156 3325.96C6099.48 3328.44 6042.25 3325.48 5986 3319.83C5704.81 3291.62 5429.87 3154.09 5268.75 2917C4999.62 2520.97 5027.84 1929.45 5357.09 1576C5503.28 1419.07 5714.4 1321.75 5925 1290.73C6003.4 1279.18 6081.76 1273.49 6161 1276.96C6189.95 1278.23 6221.67 1277.24 6250 1284L6250 0L0 0z"/>
<path style="fill:#134260; stroke:none;" d="M0 619L0 1126C232.301 1126 471.767 1207.98 621.905 1393C863.655 1690.92 855.874 2176.31 597.83 2462C536.053 2530.4 457.637 2585.39 374 2623.69C256.495 2677.5 128.655 2701 0 2701L0 3208C188.278 3208 385.481 3177.29 557 3095.74C626.503 3062.7 693.799 3026.44 757 2982.28C930.743 2860.88 1074.75 2696.74 1169.63 2507C1283.96 2278.37 1319.2 2018.5 1295.17 1766C1281.9 1626.61 1247.1 1487.56 1188.69 1360C1064.17 1088.04 840.163 861.294 568 736.309C390.113 654.618 194.866 619 0 619z"/>
<path style="fill:#1f5a6a; stroke:none;" d="M0 1126L0 1663C38.0404 1663 79.3878 1668.39 114 1685.26C144.266 1700.01 175.823 1720.57 197.195 1747C224.923 1781.29 246.164 1820.41 254.996 1864C278.21 1978.58 215.395 2097.11 109 2144.14C75.258 2159.05 36.5142 2164 0 2164L0 2701C129.038 2701 257.122 2677.67 375 2623.69C458.146 2585.62 536.397 2531.02 597.83 2463C856.111 2177.05 863.875 1690.19 621.905 1392C471.82 1207.04 231.999 1126 0 1126z"/>
<path style="fill:#134260; stroke:none;" d="M6250 3319L6250 2517C6237.63 2522.33 6226.49 2530.45 6214 2535.55C6179.1 2549.8 6142.5 2556.06 6105 2556C6068.93 2555.94 6028.48 2545.31 5997 2527.86C5956.1 2505.19 5920.95 2476.33 5896.06 2436C5832.12 2332.4 5851.69 2189.73 5944 2109.29C5981.39 2076.7 6028.16 2056.22 6077 2048.59C6122.79 2041.43 6170.14 2049.21 6213 2066.2C6225.87 2071.31 6237.32 2079.54 6250 2085L6250 1492L6250 1339L6250 1299C6250 1295.26 6251.42 1287.71 6248.97 1284.6C6246.58 1281.58 6238.51 1282.21 6235 1281.83C6221.71 1280.41 6208.24 1280.28 6195 1278.71C6136.41 1271.8 6073.59 1274.25 6015 1279.83C5759.37 1304.17 5509.24 1401.8 5336.13 1598.01C5096.35 1869.8 5039.71 2262.79 5127.52 2606C5176.63 2797.95 5284.85 2980.38 5441 3104.34C5609.8 3238.34 5819.25 3309.28 6033 3323.91C6074.13 3326.72 6116.82 3328.73 6158 3325.91C6188.46 3323.83 6219.5 3319.63 6250 3319z"/>
<path style="fill:#327e8a; stroke:none;" d="M0 1663L0 2164C56.2309 2164 110.559 2150.32 157 2117.56C260.877 2044.29 288.287 1894.72 226.127 1786C200.825 1741.75 160.4 1707.38 115 1685.26C80.0276 1668.22 38.4126 1663 0 1663z"/>
<path style="fill:#1f5a6a; stroke:none;" d="M6098 2046.42C6040.47 2053.98 5986.11 2070 5942 2110.17C5840.55 2202.58 5829.27 2369.16 5922.17 2472C5956.72 2510.25 5999.48 2532.56 6048 2547.34C6080.44 2557.23 6116.58 2558.51 6150 2553.57C6176.15 2549.71 6204.93 2542.1 6228 2529C6233.92 2525.64 6245.25 2522.57 6248.97 2516.62C6252.76 2510.56 6250 2496.04 6250 2489L6250 2419L6250 2176L6250 2111C6250 2104.39 6252.54 2091.08 6248.97 2085.38C6243.83 2077.15 6222.86 2069.72 6214 2066.2C6178.9 2052.28 6136.02 2041.43 6098 2046.42z"/>
<path style="fill:#134260; stroke:none;" d="M2047 6855L2047 6856L2028 6856L2028 6857L2123 6925.33L2163 6951L2163 6952L2140 6951L2140 6952L2217 6999.28L2246 7015L2246 7016L2220 7015L2220 7016C2237.75 7026.37 2258.25 7041.52 2278 7047.37C2288.66 7050.52 2300.48 7047.31 2311 7050.97C2325.83 7056.12 2338.86 7066.64 2354 7071L2354 7072L2323 7070L2323 7071L2404 7108.42L2438 7122L2438 7123L2397 7119L2397 7120L2500 7160.69L2537 7173L2537 7174L2478 7166L2478 7167C2547.81 7189.76 2616.39 7214.14 2688 7231.12C2771.03 7250.8 2854.51 7262.32 2939 7273L2939 7272L2884 7255L2884 7254L2930 7258.83L3050 7267L3050 7266L3016 7254L3016 7253L3162 7255L3162 7254L3135 7244L3135 7243L3196 7242.33L3225 7252.96L3308 7247L3308 7246L3286 7237L3286 7236C3324.04 7235.21 3363.41 7228.41 3401 7222.58C3416.77 7220.13 3433.06 7215.68 3449 7215L3433 7204C3462.44 7203.39 3494.34 7193.14 3523 7186.65C3555.58 7179.28 3587.9 7170.93 3620 7161.71C3635.55 7157.24 3652.19 7153.57 3667 7147L3654 7138C3679.72 7134.2 3706.71 7121.51 3731 7112.42C3780.42 7093.94 3829.27 7074.32 3877 7051.78C4076.67 6957.47 4256.55 6827.59 4411.01 6670C4557.81 6520.23 4680.23 6344.25 4766.69 6153C4831.93 6008.68 4879.27 5855.68 4903.58 5699C4935.48 5493.36 4933.28 5280.44 4893.2 5076C4829.8 4752.68 4674.7 4446.42 4449.91 4205C4317.6 4062.9 4166.14 3940.34 3997 3844.58C3816.05 3742.13 3615.71 3670.33 3410 3638.42C3190.78 3604.42 2964.15 3607.73 2747 3655.42C2220.12 3771.15 1764.39 4128.2 1517.26 4607C1316.68 4995.6 1269.03 5459.15 1383.15 5881C1442.04 6098.67 1543.21 6304.58 1678.52 6485C1753.83 6585.4 1838.77 6677.26 1932 6761.17C1956.66 6783.36 1982.09 6804.68 2008 6825.4C2020.29 6835.23 2032.95 6847.83 2047 6855z"/>
<path style="fill:#1f5a6a; stroke:none;" d="M3078 3974.42C3051.39 3977.92 3023.8 3976.58 2997 3979.17C2922.19 3986.41 2847.97 3998.65 2775 4016.9C2462.53 4095.01 2169.76 4274.13 1976.48 4534C1850.67 4703.15 1758.73 4900.5 1715.49 5107C1701.64 5173.11 1688.72 5239.42 1684.09 5307C1662.03 5628.73 1745.96 5959.03 1925.33 6228C2000.3 6340.41 2090.71 6440.44 2194 6527.56C2363.6 6670.6 2572.59 6767.05 2787 6820.37C2959.95 6863.38 3140.77 6870.91 3317 6847.72C3667.11 6801.65 4010.71 6621.54 4234.54 6347C4437.21 6098.4 4552.96 5785.85 4566.96 5466C4572.25 5345.18 4557.8 5225.82 4532.67 5108C4472.96 4828.13 4328.66 4558.52 4117.99 4363.17C3952.09 4209.34 3750.13 4097.01 3533 4033.58C3424.66 4001.92 3312.8 3980.9 3200 3975.96C3160.54 3974.23 3117.36 3969.25 3078 3974.42z"/>
<path style="fill:#327e8a; stroke:none;" d="M3100 4226.42C3063.21 4231.26 3025.1 4230.19 2988 4234.17C2915.8 4241.9 2844.25 4258.5 2775 4280.03C2455.98 4379.2 2187.13 4617.45 2044.89 4919C1968.43 5081.09 1925.17 5267.33 1933.04 5447C1938.63 5574.58 1960.95 5699.72 2005.05 5820C2103.32 6088.02 2302.47 6322.96 2554 6459.31C2656.01 6514.61 2765.05 6558.4 2879 6582C3008.3 6608.78 3140.96 6615.96 3272 6598.72C3440.73 6576.51 3603.58 6517.52 3748 6427.58C4099.42 6208.71 4325.16 5807.33 4314.99 5392C4306.07 5028.08 4122.85 4682.61 3832 4464.48C3728.79 4387.07 3613.35 4326.78 3491 4286C3395.92 4254.31 3297.82 4235.74 3198 4228.91C3166.41 4226.75 3131.58 4222.28 3100 4226.42z"/>
<path style="fill:#48adb6; stroke:none;" d="M3108 4578.42C3079.65 4582.15 3050.54 4581.53 3022 4585.28C2971.84 4591.88 2921.54 4604.44 2874 4621.7C2600.58 4720.91 2366.87 4965.73 2303.42 5253C2283.45 5343.46 2279.78 5436.38 2293.27 5528C2306.61 5618.56 2338.98 5704.39 2381.51 5785C2491.83 5994.07 2695.24 6165 2924 6228.58C3023.43 6256.21 3126.91 6262.47 3229 6248.72C3330.22 6235.08 3429.43 6197.38 3517 6145.45C3773.04 5993.63 3976.42 5705.49 3962.96 5398C3948.96 5078.05 3735.19 4784.5 3446 4651.69C3365.03 4614.51 3280.76 4590.42 3192 4581.83C3165.01 4579.22 3135.06 4574.87 3108 4578.42z"/>
<path style="fill:#091023; stroke:none;" d="M2354.67 7072.33L2355.33 7072.67L2354.67 7072.33M2538.67 7174.33L2539.33 7174.67L2538.67 7174.33z"/>
<path style="fill:#134260; stroke:none;" d="M2588 7213L2589 7214L2588 7213M2592.67 7214.33L2593.33 7214.67L2592.67 7214.33M2595 7215L2595 7216L2626 7224L2626 7225L2597 7220L2597 7221C2661.74 7234.4 2725.58 7260.75 2792 7266L2792 7265L2759 7257L2759 7256L2799 7263C2793.49 7259.64 2786.18 7258.77 2780 7257C2765.1 7252.74 2750.03 7248.88 2735 7245.13C2689.81 7233.83 2641.54 7218.68 2595 7215M2593.67 7219.33L2594.33 7219.67L2593.67 7219.33z"/>
<path style="fill:#091023; stroke:none;" d="M2626 7225L2626 7226L2630 7226L2626 7225M2631 7226L2631 7227L2634 7227L2631 7226M2636 7227L2637 7228L2636 7227M3013 7252L3014 7253L3013 7252M2881 7253L2881 7254L2884 7254L2881 7253M2751.67 7254.33L2752.33 7254.67L2751.67 7254.33M2755 7255L2755 7256L2758 7256L2755 7255z"/>
<path style="fill:#134260; stroke:none;" d="M2801.67 7263.33L2802.33 7263.67L2801.67 7263.33M2793.67 7266.33L2794.33 7266.67L2793.67 7266.33M2267 7657L2267 7658L2338 7678L2338 7679C2320.77 7678.64 2303.11 7674.41 2286 7672.28C2258.13 7668.82 2229.99 7666.01 2202 7664.09C2135.32 7659.52 2068.82 7660.44 2002 7661L2002 7662L2030 7672L2030 7673L1885 7682L1885 7683L1908 7692L1908 7693C1852.53 7694.15 1797.77 7708.93 1743 7716L1743 7717L1762 7725L1762 7726C1738.29 7727.88 1714.14 7735.04 1691 7740.35C1636.05 7752.96 1582.57 7769.57 1529 7787L1529 7788L1544 7795C1511.5 7809.41 1476.86 7819.63 1444 7833.42C1376.09 7861.92 1310.15 7895.51 1247 7933.4C970.195 8099.48 735.076 8352.67 600.309 8647C408.767 9065.32 400.518 9572.01 593.309 9992C736.165 10303.2 979.548 10568.4 1277 10738.2C1422.45 10821.2 1580.82 10879.8 1745 10912.6C2028.79 10969.2 2335.77 10951.5 2609 10854.3C3056.33 10695.1 3434.08 10327.2 3593.14 9878C3676.92 9641.34 3701.74 9389.99 3676.83 9141C3645.92 8831.96 3515.96 8537.16 3317.92 8299C3266.65 8237.34 3210.46 8178.95 3151 8125.17C3124.4 8101.11 3094.86 8079.75 3069 8055L3088 8056C3077.94 8042.85 3060.22 8032.54 3047 8022.63C3028.51 8008.76 3009.82 7995.26 2991 7981.86C2981.08 7974.8 2970.43 7965.33 2959 7961L2959 7960L2982 7961L2982 7960L2913 7915.8L2880 7897L2880 7896L2906 7897L2906 7896C2872.96 7880.55 2842.3 7853.17 2807 7843L2807 7842L2838 7844L2838 7843C2815.52 7833.59 2794.21 7820.51 2772 7810.31C2729.68 7790.88 2686.74 7772.94 2643 7756.95C2619.87 7748.49 2594.42 7736.61 2570 7733L2570 7732L2642 7743C2633.48 7736.63 2619.11 7734.04 2609 7730.67C2584.57 7722.52 2559.9 7714.69 2535 7708.12C2469.65 7690.85 2404.02 7675.29 2337 7665.87C2314 7662.64 2290.24 7657.48 2267 7657z"/>
<path style="fill:#091023; stroke:none;" d="M2338 7679L2338 7680L2341 7680L2338 7679M2344 7680L2345 7681L2344 7680M2563 7730L2564 7731L2563 7730M2567 7731L2567 7732L2570 7732L2567 7731z"/>
<path style="fill:#134260; stroke:none;" d="M2643.67 7743.33L2644.33 7743.67L2643.67 7743.33z"/>
<path style="fill:#1f5a6a; stroke:none;" d="M2052 8075.42C2019.52 8079.69 1985.73 8077.05 1953 8080.17C1890.78 8086.1 1828.96 8095.68 1768 8109.65C1513.65 8167.96 1268.05 8310.35 1103.31 8514C978.188 8668.68 890.082 8852.51 847.424 9047C775.434 9375.23 835.142 9734.99 1015.7 10019C1077.09 10115.6 1151.98 10202.3 1238 10277.7C1514.67 10520.3 1898.22 10613 2258 10565.7C2536.49 10529.1 2806.2 10391.8 2996.91 10186C3215.27 9950.36 3329.81 9619.68 3321.99 9300C3313.42 8949.96 3166.91 8608.57 2902 8376.29C2766.23 8257.24 2598.28 8172.52 2425 8123.84C2335.2 8098.62 2242.24 8082.04 2149 8077.96C2117.59 8076.58 2083.32 8071.31 2052 8075.42z"/>
<path style="fill:#327e8a; stroke:none;" d="M2041 8336.42C2019.29 8339.27 1996.86 8338.05 1975 8340.17C1919.09 8345.58 1863.38 8354.6 1809 8368.88C1603.02 8422.98 1415.07 8546.89 1285.24 8716C1214.19 8808.54 1159.41 8911.8 1124.03 9023C1027.01 9327.92 1085.48 9679.66 1281.5 9933C1331.89 9998.12 1389.58 10058.5 1455 10108.8C1541.76 10175.4 1637.32 10229.4 1741 10264.9C1888.81 10315.6 2049.46 10328.9 2204 10309.7C2540.82 10267.8 2844.74 10042.8 2979.13 9730C3037.34 9594.48 3064.59 9447.31 3060.99 9300C3058.01 9178.28 3033.73 9055.73 2987.14 8943C2867.86 8654.38 2608.68 8432.26 2304 8362.35C2245.13 8348.84 2186.06 8342.02 2126 8337.91C2098.59 8336.03 2068.39 8332.83 2041 8336.42z"/>
<path style="fill:#48adb6; stroke:none;" d="M2043 8719.42C1995.63 8725.64 1949.49 8728.5 1903 8741.42C1782.36 8774.96 1675.88 8846.5 1596.46 8943C1549.6 8999.95 1512.72 9067.32 1491.43 9138C1468.59 9213.82 1457.66 9291.77 1463.09 9371C1476.47 9566.36 1588.06 9753.51 1759 9851.57C1814 9883.12 1872.99 9906.88 1935 9920.58C2006.61 9936.4 2081.35 9939.27 2154 9929.72C2332.09 9906.3 2498.21 9799.87 2590.55 9645C2642.79 9557.37 2673.5 9457.02 2677.96 9355C2687.38 9139.86 2581.71 8930.98 2400 8814.09C2345.12 8778.79 2284.21 8753.33 2221 8737.52C2185.51 8728.65 2150.28 8724.29 2114 8720.83C2091.2 8718.66 2065.83 8716.43 2043 8719.42z"/>
</svg>
